<svg width="170" height="47" viewBox="0 0 170 47" fill="none" xmlns="http://www.w3.org/2000/svg">
<path d="M18.7294 0.832031H0V46.1654L18.7294 0.832031Z" fill="CurrentColor"/>
<path d="M31.907 0.832031H50.612V46.1654L31.907 0.832031Z" fill="CurrentColor"/>
<path d="M37.2391 46.1654L25.3182 17.5403L17.131 37.0518H25.8551L29.4179 46.1654H37.2391Z" fill="CurrentColor"/>
<path fill-rule="evenodd" clip-rule="evenodd" d="M99.5105 36.6871C101.792 36.6871 104.22 36.2673 106.685 35.1929C106.88 35.1188 106.917 35.0324 106.917 34.8471C106.844 34.1556 106.758 33.1553 106.758 32.3897V9.17346V9.17345C106.758 9.02526 106.758 8.95117 106.575 8.95117H102.439C102.28 8.95117 102.207 9.02527 102.207 9.22285V17.0892C101.56 17.0151 101.109 16.9781 100.572 16.9781C93.8978 16.9781 89.7981 21.4361 89.7981 27.0055C89.7981 33.464 94.0076 36.6871 99.5105 36.6871ZM102.207 32.3897C101.524 32.6119 100.767 32.6984 99.9986 32.6984C96.9726 32.6984 94.4957 30.9695 94.4957 26.7708C94.4957 23.0538 97.0458 20.8556 100.426 20.8556C101.109 20.8556 101.707 20.9297 102.207 21.1273V32.3897ZM81.1677 29.6605L83.3762 36.0697C83.4494 36.2302 83.5592 36.3043 83.7544 36.3043H88.0005C88.2324 36.3043 88.269 36.1932 88.2324 35.9586L79.4595 11.2975C79.4229 11.0999 79.3862 11.0629 79.191 11.0629H73.9199C73.7735 11.0629 73.6881 11.174 73.6881 11.3346C73.6149 12.6312 73.5051 13.0264 73.3465 13.4092L65.5253 35.9215C65.4887 36.1932 65.5741 36.3043 65.7937 36.3043H69.5884C69.8202 36.3043 69.93 36.2302 70.0155 35.9956L72.1019 29.6605H81.1677ZM73.784 24.0292L73.7841 24.0289C74.8434 20.8052 76.051 17.1303 76.5799 14.9034H76.6165C77.1495 16.8003 78.1914 20.0093 79.0422 22.6294L79.0422 22.6294C79.3988 23.7278 79.7219 24.7228 79.9597 25.4742H73.3099C73.4616 25.0102 73.6198 24.5289 73.7814 24.0371L73.7833 24.0313L73.784 24.0292ZM110.888 26.8571C110.888 21.3989 114.415 16.9779 120.113 16.9779C125.957 16.9779 129.142 21.473 129.142 26.7337C129.142 32.6982 125.384 36.687 120.027 36.687C113.695 36.687 110.888 31.735 110.888 26.8571ZM124.469 26.8571C124.469 23.6587 123.102 20.8555 119.881 20.8555C117.331 20.8555 115.513 23.1277 115.513 26.7707C115.513 30.3149 117.221 32.7723 120.113 32.7723C122.455 32.7723 124.469 30.8088 124.469 26.8571ZM133.418 8.95117C133.26 8.95117 133.15 9.02527 133.15 9.22285V35.5016C133.15 35.6128 133.26 35.8104 133.418 35.8474C135.236 36.4154 137.14 36.6871 139.104 36.6871C144.729 36.6871 150.195 33.1553 150.195 26.0422C150.195 20.8927 146.706 16.9781 141.239 16.9781C139.983 16.9781 138.811 17.1756 137.786 17.5214L137.738 9.2599C137.738 8.98822 137.664 8.95117 137.396 8.95117H133.418ZM145.522 26.5115C145.522 30.7719 142.643 32.7725 139.531 32.7725C138.884 32.7725 138.311 32.7354 137.786 32.5749V21.362C138.384 21.1273 139.104 20.9297 140.434 20.9297C143.436 20.9297 145.522 22.8562 145.522 26.5115ZM169.536 27.7339C169.012 27.8574 167.487 27.8945 165.632 27.8945H157.921C158.03 30.5742 159.787 32.7353 163.655 32.7353C165.364 32.7353 166.925 32.4266 168.365 31.8091C168.475 31.735 168.585 31.7721 168.585 31.9573V35.1557C168.585 35.378 168.512 35.5015 168.365 35.5756C166.925 36.2671 165.254 36.687 162.667 36.687C155.761 36.687 153.296 31.7721 153.296 27.0424C153.296 21.7076 156.481 16.9779 162.216 16.9779C167.828 16.9779 170 21.4359 170 25.0912C170 26.1656 169.951 27.0424 169.841 27.4623C169.805 27.6228 169.732 27.6969 169.536 27.7339ZM162.02 20.6703C159.397 20.6703 158.226 22.7079 157.921 24.5849H163.582H163.582C165.022 24.5849 165.51 24.5849 165.669 24.5479V24.2392C165.669 23.1277 164.912 20.6703 162.02 20.6703Z" fill="CurrentColor"/>
</svg>
