<svg width="116" height="47" viewBox="0 0 116 47" fill="none" xmlns="http://www.w3.org/2000/svg">
<g clip-path="url(#clip0_270_5549)">
<path fill-rule="evenodd" clip-rule="evenodd" d="M7.607 42.7027C6.17373 42.7027 5.45597 41.9939 5.45597 40.8284C5.45597 38.6668 7.86883 37.929 12.2726 37.4595C12.2726 40.3512 10.3223 42.7027 7.607 42.7027V42.7027ZM9.5059 26.4336C6.35966 26.4336 2.73906 27.9198 0.773952 29.4899L2.56896 33.2765C4.1451 31.8316 6.69297 30.5954 8.99155 30.5954C11.1757 30.5954 12.3816 31.3276 12.3816 32.8018C12.3816 33.794 11.5824 34.2956 10.0722 34.4923C4.42766 35.2266 0 36.7888 0 41.1498C0 44.6076 2.45649 46.6984 6.29266 46.6984C9.0295 46.6984 11.4671 45.1734 12.6258 43.161V46.1358H17.7284V33.6711C17.7284 28.5244 14.1587 26.4336 9.5059 26.4336V26.4336Z" fill="CurrentColor"/>
<path fill-rule="evenodd" clip-rule="evenodd" d="M60.7393 26.9974V46.1365H66.2001V36.9141C66.2001 32.5313 68.8472 31.2446 70.6923 31.2446C71.522 31.2373 72.3349 31.4782 73.0273 31.9366L74.0215 26.8765C73.2439 26.5654 72.4117 26.415 71.5747 26.4343C68.7671 26.4343 67.0023 27.6808 65.8392 30.2141V26.9974H60.7393Z" fill="CurrentColor"/>
<path fill-rule="evenodd" clip-rule="evenodd" d="M99.34 26.4336C96.4521 26.4336 94.293 28.1453 93.1699 29.794C92.127 27.6629 89.9167 26.4336 87.2691 26.4336C84.3812 26.4336 82.3822 28.042 81.4599 29.8916V26.9964H76.1968V46.1355H81.6603V36.2846C81.6603 32.7463 83.5085 31.05 85.2333 31.05C86.794 31.05 88.2287 32.0628 88.2287 34.6761V46.1357H93.6856V36.2846C93.6856 32.7062 95.4893 31.05 97.2942 31.05C98.7383 31.05 100.261 32.1029 100.261 34.636V46.1356H105.717V32.907C105.717 28.6048 102.829 26.4336 99.3399 26.4336" fill="CurrentColor"/>
<path fill-rule="evenodd" clip-rule="evenodd" d="M47.4459 26.9964H42.4984V25.0502C42.4984 22.5173 43.9404 21.7935 45.1839 21.7935C46.0352 21.8029 46.8725 22.0122 47.6286 22.4045L49.3124 18.5449C49.3124 18.5449 47.6063 17.4268 44.5019 17.4268C41.0126 17.4268 37.0416 19.3973 37.0416 25.5891V26.9964H28.7593V25.0502C28.7593 22.5173 30.2015 21.7935 31.445 21.7935C32.2976 21.7927 33.1372 22.0026 33.8897 22.4045L35.5734 18.5449C34.568 17.9542 32.9529 17.4268 30.7629 17.4268C27.2734 17.4268 23.3025 19.3973 23.3025 25.5891V26.9964H20.134V31.2182H23.3024V46.1355H28.7593V31.2182H37.0416V46.1355H42.4985V31.2182H47.446V26.9964" fill="CurrentColor"/>
<path d="M56.1544 26.9971H50.7029V46.1363H56.1544V26.9971Z" fill="CurrentColor"/>
<path fill-rule="evenodd" clip-rule="evenodd" d="M50.9043 23.7427H56.2455C59.3607 13.924 69.9318 5.30267 82.5085 5.30267C97.7972 5.30267 111.008 16.9696 111.008 35.1337C111.05 38.8569 110.536 42.5655 109.483 46.1362H114.666L114.718 45.9573C115.591 42.4167 116.022 38.7809 116 35.1337C116 14.878 101.276 0.298828 82.5084 0.298828C67.7678 0.298828 54.6321 10.5552 50.9043 23.7427V23.7427Z" fill="CurrentColor"/>
</g>
<defs>
<clipPath id="clip0_270_5549">
<rect width="116" height="46.4" fill="white" transform="translate(0 0.298828)"/>
</clipPath>
</defs>
</svg>
