<svg width="170" height="53" viewBox="0 0 170 53" fill="none" xmlns="http://www.w3.org/2000/svg">
<g clip-path="url(#clip0_270_5551)">
<path d="M89.5944 13.3156C89.5944 15.2255 88.0543 16.7639 86.1424 16.7639C84.2304 16.7639 82.6903 15.2255 82.6903 13.3156C82.6903 11.4058 84.1773 9.86737 86.1424 9.86737C88.1074 9.92042 89.5944 11.4589 89.5944 13.3156ZM75.3613 20.2652C75.3613 20.5835 75.3613 21.1141 75.3613 21.1141C75.3613 21.1141 73.715 18.992 70.2098 18.992C64.421 18.992 59.9068 23.3952 59.9068 29.496C59.9068 35.5438 64.3679 40 70.2098 40C73.7681 40 75.3613 37.8249 75.3613 37.8249V38.7268C75.3613 39.1512 75.68 39.4695 76.1049 39.4695H80.4066V19.5225C80.4066 19.5225 76.4766 19.5225 76.1049 19.5225C75.68 19.5225 75.3613 19.8939 75.3613 20.2652ZM75.3613 33.0504C74.5647 34.2175 72.9715 35.2255 71.0596 35.2255C67.6606 35.2255 65.0583 33.1034 65.0583 29.496C65.0583 25.8886 67.6606 23.7666 71.0596 23.7666C72.9184 23.7666 74.6178 24.8276 75.3613 25.9416V33.0504ZM83.5931 19.5225H88.6916V39.4695H83.5931V19.5225ZM159.751 18.992C156.245 18.992 154.599 21.1141 154.599 21.1141V9.92042H149.501V39.4695C149.501 39.4695 153.431 39.4695 153.802 39.4695C154.227 39.4695 154.546 39.0981 154.546 38.7268V37.8249C154.546 37.8249 156.192 40 159.698 40C165.486 40 170.001 35.5438 170.001 29.496C170.001 23.4483 165.486 18.992 159.751 18.992ZM158.901 35.1724C156.936 35.1724 155.396 34.1644 154.599 32.9973V25.8886C155.396 24.8276 157.095 23.7135 158.901 23.7135C162.3 23.7135 164.902 25.8355 164.902 29.443C164.902 33.0504 162.3 35.1724 158.901 35.1724ZM146.845 27.6392V39.5225H141.747V28.2228C141.747 24.9337 140.685 23.6074 137.817 23.6074C136.277 23.6074 134.683 24.4032 133.674 25.5703V39.4695H128.576V19.5225H132.612C133.037 19.5225 133.356 19.8939 133.356 20.2652V21.1141C134.843 19.5756 136.808 18.992 138.773 18.992C141.003 18.992 142.862 19.6286 144.349 20.9019C146.155 22.3873 146.845 24.2971 146.845 27.6392ZM116.202 18.992C112.697 18.992 111.05 21.1141 111.05 21.1141V9.92042H105.952V39.4695C105.952 39.4695 109.882 39.4695 110.254 39.4695C110.678 39.4695 110.997 39.0981 110.997 38.7268V37.8249C110.997 37.8249 112.643 40 116.149 40C121.937 40 126.452 35.5438 126.452 29.496C126.505 23.4483 121.991 18.992 116.202 18.992ZM115.352 35.1724C113.387 35.1724 111.847 34.1644 111.05 32.9973V25.8886C111.847 24.8276 113.546 23.7135 115.352 23.7135C118.751 23.7135 121.353 25.8355 121.353 29.443C121.353 33.0504 118.751 35.1724 115.352 35.1724ZM101.544 18.992C103.084 18.992 103.881 19.2573 103.881 19.2573V23.9788C103.881 23.9788 99.6319 22.5464 96.9765 25.5703V39.5225H91.8781V19.5225C91.8781 19.5225 95.8081 19.5225 96.1798 19.5225C96.6047 19.5225 96.9234 19.8939 96.9234 20.2652V21.1141C97.8793 20 99.9505 18.992 101.544 18.992ZM48.5947 37.6658C48.3292 37.0292 48.0636 36.3395 47.7981 35.756C47.3732 34.8011 46.9483 33.8992 46.5766 33.0504L46.5235 32.9973C42.859 25.0398 38.929 16.9761 34.7865 9.01856L34.6272 8.70026C34.2023 7.90451 33.7775 7.0557 33.3526 6.20689C32.8215 5.25199 32.2904 4.24403 31.4407 3.28912C29.7412 1.16711 27.2982 0 24.6959 0C22.0405 0 19.6506 1.16711 17.8981 3.18302C17.1014 4.13793 16.5172 5.14589 15.9861 6.10079C15.5613 6.9496 15.1364 7.79841 14.7115 8.59416L14.5522 8.91246C10.4629 16.87 6.47975 24.9337 2.81527 32.8912L2.76216 32.9973C2.3904 33.8461 1.96553 34.748 1.54066 35.7029C1.27512 36.2865 1.00958 36.9231 0.744037 37.6127C0.0536279 39.5756 -0.158806 41.4323 0.106736 43.3422C0.690929 47.3209 3.34635 50.6631 7.01083 52.1485C8.39165 52.7321 9.82557 52.9973 11.3126 52.9973C11.7375 52.9973 12.2686 52.9443 12.6934 52.8912C14.446 52.679 16.2517 52.0955 18.0043 51.0875C20.1817 49.8674 22.2529 48.1167 24.5897 45.5703C26.9265 48.1167 29.0508 49.8674 31.1752 51.0875C32.9277 52.0955 34.7334 52.679 36.486 52.8912C36.9109 52.9443 37.4419 52.9973 37.8668 52.9973C39.3538 52.9973 40.8409 52.7321 42.1686 52.1485C45.8862 50.6631 48.4885 47.2679 49.0727 43.3422C49.4976 41.4854 49.2851 39.6286 48.5947 37.6658ZM24.6428 40.4244C21.775 36.817 19.9162 33.4217 19.2789 30.557C19.0133 29.3369 18.9602 28.2759 19.1195 27.3209C19.2258 26.4721 19.5444 25.7294 19.9693 25.0928C20.9783 23.6605 22.6778 22.7586 24.6428 22.7586C26.6078 22.7586 28.3604 23.6074 29.3164 25.0928C29.7412 25.7294 30.0599 26.4721 30.1661 27.3209C30.3254 28.2759 30.2723 29.3899 30.0068 30.557C29.3695 33.3687 27.5107 36.7639 24.6428 40.4244ZM45.8331 42.9178C45.4613 45.6764 43.6025 48.0636 41.0002 49.1247C39.7256 49.6552 38.3448 49.8143 36.964 49.6552C35.6363 49.496 34.3086 49.0716 32.9277 48.2758C31.0158 47.2148 29.1039 45.5703 26.8734 43.13C30.3785 38.8329 32.5029 34.9072 33.2995 31.4058C33.6713 29.7613 33.7244 28.2759 33.565 26.8965C33.3526 25.5703 32.8746 24.3501 32.1311 23.2891C30.4847 20.9019 27.7231 19.5225 24.6428 19.5225C21.5625 19.5225 18.8009 20.9549 17.1545 23.2891C16.411 24.3501 15.933 25.5703 15.7206 26.8965C15.5082 28.2759 15.5613 29.8143 15.9861 31.4058C16.7828 34.9072 18.9602 38.8859 22.4123 43.183C20.2348 45.6233 18.2698 47.2679 16.3579 48.3289C14.9771 49.1247 13.6494 49.5491 12.3217 49.7082C10.8877 49.8674 9.50692 49.6552 8.28543 49.1777C5.68312 48.1167 3.82432 45.7294 3.45257 42.9708C3.29324 41.6445 3.39946 40.3183 3.93054 38.8329C4.08987 38.3024 4.35541 37.7719 4.62095 37.1353C4.99271 36.2865 5.41758 35.3846 5.84244 34.4827L5.89555 34.3766C9.56003 26.4721 13.4901 18.4085 17.5794 10.557L17.7387 10.2387C18.1636 9.44297 18.5885 8.59416 19.0133 7.79841C19.4382 6.9496 19.9162 6.15384 20.5004 5.46419C21.6156 4.19098 23.1027 3.50133 24.749 3.50133C26.3954 3.50133 27.8824 4.19098 28.9977 5.46419C29.5819 6.15384 30.0599 6.9496 30.4847 7.79841C30.9096 8.59416 31.3345 9.44297 31.7593 10.2387L31.9187 10.557C35.9549 18.4615 39.8849 26.5252 43.5494 34.4297V34.4827C43.9743 35.3316 44.346 36.2865 44.7709 37.1353C45.0364 37.7719 45.302 38.3024 45.4613 38.8329C45.8862 40.2122 46.0455 41.5384 45.8331 42.9178Z" fill="CurrentColor"/>
</g>
<defs>
<clipPath id="clip0_270_5551">
<rect width="170" height="52.9973" fill="CurrentColor"/>
</clipPath>
</defs>
</svg>
