<svg width="220" height="33" viewBox="0 0 220 33" fill="none" xmlns="http://www.w3.org/2000/svg">
<g clip-path="url(#clip0_270_5552)">
<path fill-rule="evenodd" clip-rule="evenodd" d="M211.521 16.3943C211.521 15.5526 212.42 15.1038 213.402 15.1038C215.059 15.1038 216.294 16.0577 216.519 17.5161H219.776C219.467 14.5148 216.912 12.4113 213.458 12.4113C210.398 12.4113 208.04 14.01 208.04 16.7025C208.04 19.7038 210.904 20.4891 213.29 21.1064C215.002 21.5549 216.463 21.9198 216.463 22.9295C216.463 23.7428 215.536 24.3038 214.245 24.3038C212.504 24.3038 211.184 23.3221 210.988 21.8637H207.731C208.04 24.8647 210.679 26.9966 214.245 26.9966C217.473 26.9966 220 25.2854 220 22.5926C220 19.6758 217.137 18.8904 214.75 18.2734C213.009 17.8244 211.521 17.432 211.521 16.3943ZM193.781 12.7196H190.216V26.7161H193.781V19.3112C193.781 17.4037 195.466 15.4123 198.33 15.8611V12.4674C196.168 12.2147 194.624 13.4207 193.781 15.2441V12.7196ZM181.839 19.5355L179.116 13.8137L176.477 19.5355H181.839ZM179.256 6.24043L189.364 26.7161H185.265L183.271 22.5366H175.073L173.135 26.7161H169.149L179.256 6.24043ZM159.744 18.2173H163.366C162.693 14.8234 159.772 12.4391 156.291 12.4391C152.248 12.4391 148.963 15.4965 148.963 19.7319C148.963 23.9392 152.248 26.9966 156.291 26.9966C159.772 26.9966 162.693 24.7245 163.366 21.3305H159.744C159.183 22.8453 157.863 23.7989 156.291 23.7989C154.185 23.7989 152.5 22.1442 152.5 19.7879C152.5 17.3759 154.185 15.7489 156.291 15.7489C157.863 15.7489 159.183 16.7025 159.744 18.2173ZM143.817 26.7161H147.383V12.7198H143.817V26.7161ZM143.312 8.6808C143.312 9.94291 144.351 10.9806 145.586 10.9806C146.849 10.9806 147.888 9.94291 147.888 8.6808C147.888 7.41868 146.849 6.38067 145.586 6.38067C144.351 6.38067 143.312 7.41868 143.312 8.6808ZM132.427 14.4585V12.7196H128.861V26.7161H132.427V18.2451C132.427 16.6186 133.69 15.3282 135.347 15.3282C137.059 15.3282 138.267 16.5623 138.267 18.3853V26.7161H141.833V18.1049C141.833 14.8234 139.951 12.4113 136.61 12.4113C134.813 12.4113 133.269 13.1964 132.427 14.4585ZM119.854 15.7209C117.692 15.7209 115.979 17.3476 115.979 19.7599C115.979 22.1158 117.692 23.7709 119.854 23.7709C122.016 23.7709 123.728 22.1158 123.728 19.7599C123.728 17.3476 122.016 15.7209 119.854 15.7209ZM119.854 26.9966C115.754 26.9966 112.442 23.9392 112.442 19.7319C112.442 15.4965 115.754 12.4391 119.854 12.4391C123.953 12.4391 127.266 15.4965 127.266 19.7319C127.266 23.9392 123.953 26.9966 119.854 26.9966ZM107.77 12.7196H104.204V26.7161H107.77V19.3112C107.77 17.4037 109.455 15.4123 112.319 15.8611V12.4674C110.157 12.2147 108.613 13.4207 107.77 15.2441V12.7196ZM203.059 8.6247L199.549 9.74658V23.0978C199.549 25.2574 201.066 26.7161 203.648 26.7161H207.13V23.5465H204.66C203.565 23.5465 203.059 23.0417 203.059 22.1158V15.7489H207.13V12.7196H203.059V8.6247ZM98.773 8.6247L95.2635 9.74658V23.0978C95.2635 25.2574 96.7796 26.7161 99.3623 26.7161H102.844V23.5465H100.374C99.2786 23.5465 98.773 23.0417 98.773 22.1158V15.7489H102.844V12.7196H98.773V8.6247ZM90.498 18.2173H94.1198C93.4459 14.8234 90.5261 12.4391 87.0445 12.4391C83.0016 12.4391 79.7165 15.4965 79.7165 19.7319C79.7165 23.9392 83.0016 26.9966 87.0445 26.9966C90.5261 26.9966 93.4459 24.7245 94.1198 21.3305H90.498C89.9365 22.8453 88.6167 23.7989 87.0445 23.7989C84.9388 23.7989 83.2543 22.1442 83.2543 19.7879C83.2543 17.3759 84.9388 15.7489 87.0445 15.7489C88.6167 15.7489 89.9365 16.7025 90.498 18.2173ZM74.6416 18.3295C74.3328 16.6747 72.8726 15.5245 71.2159 15.5245C69.5594 15.5245 68.1837 16.6186 67.7065 18.3295H74.6416ZM78.4882 20.8818H67.6787C68.1557 22.649 69.7279 23.827 71.637 23.827C72.7322 23.827 73.7427 23.4063 74.3328 22.5366H78.2914C77.2248 25.2293 74.6975 26.9966 71.5811 26.9966C67.3693 26.9966 63.9444 23.9111 63.9444 19.7038C63.9444 15.4684 67.2011 12.4113 71.2159 12.4113C74.6975 12.4113 78.516 14.9636 78.516 20.3489C78.516 20.5172 78.4882 20.6857 78.4882 20.8818ZM58.7995 26.7161H62.3654V5.95996L58.7995 7.08212V26.7161ZM42.9148 7.08212H57.1785V10.5319H46.8459V15.1319H55.2126V18.5256H46.8459V23.3221H57.1785V26.7161H42.9148V7.08212Z" fill="CurrentColor"/>
<path fill-rule="evenodd" clip-rule="evenodd" d="M16.1583 32.6585C7.24855 32.6585 0 25.4099 0 16.5002C0 7.59037 7.24855 0.341797 16.1583 0.341797C25.068 0.341797 32.3167 7.59041 32.3167 16.5002C32.3167 25.4099 25.068 32.6585 16.1583 32.6585ZM18.8932 10.2503H9.76138L8.37583 12.4769H17.4972L18.8932 10.2503ZM20.7595 10.2715L15.1769 19.1606H8.98463L10.4133 16.9321H14.1247L15.5424 14.7046H6.96226L5.54483 16.9321H7.57742L4.75728 21.3815H16.5267L20.8738 14.5259L22.4588 16.9321H21.0296L19.6761 19.1606H23.9084L25.3779 21.3815H28.0777L20.7595 10.2715Z" fill="CurrentColor"/>
</g>
<defs>
<clipPath id="clip0_270_5552">
<rect width="220" height="32.3167" fill="CurrentColor" transform="translate(0 0.339844)"/>
</clipPath>
</defs>
</svg>
